<svg xmlns="http://www.w3.org/2000/svg" width="41" height="41" viewBox="0 0 41 41">
    <path fill="#353535" fill-rule="nonzero" d="M20.5 37.101c-1.392 0-2.677-.854-3.525-2.345l-4.327-7.596c-.564-.99-1.24-2.143-1.784-3.07-.692-1.178-1.03-1.755-1.147-1.99-.273-.55-.612-1.511-.793-2.138-.106-.367-.213-.734-.322-1.1l.006-.002a2.208 2.208 0 0 1-.084-.37l-.035-.258-.11-.825a1.676 1.676 0 0 1-.014-.218v-.6c0-6.662 5.444-12.082 12.135-12.082s12.135 5.42 12.135 12.082v.6c0 .073-.005.146-.015.218-.042.321-.08.614-.109.825l-.035.258a2.213 2.213 0 0 1-.084.37l.006.002c-.028.089-.163.55-.322 1.1-.25.869-1.161 2.654-1.282 2.877a479.86 479.86 0 0 1-2.441 4.32l-4.328 7.597c-.848 1.49-2.133 2.345-3.525 2.345zm-9.297-19.304c.029.088.052.167.07.23.067.225.157.535.255.876.178.616.473 1.4.617 1.69.09.178.633 1.103 1.113 1.92.588 1.003 1.321 2.252 1.937 3.334l4.644 8.151c.33.58.618.703.661.703.043 0 .331-.122.662-.702l4.644-8.153a541.975 541.975 0 0 0 2.581-4.567c.24-.445.957-1.934 1.084-2.375l.256-.877c.018-.064.041-.142.07-.23.025-.173.075-.547.133-.99v-.526c0-5.169-4.23-9.373-9.43-9.373-5.2 0-9.43 4.204-9.43 9.372v.528l.133.99zm6.159-.769a3.138 3.138 0 1 0 6.276 0 3.138 3.138 0 0 0-6.276 0z"/>
</svg>
