<svg xmlns="http://www.w3.org/2000/svg" width="186" height="186" viewBox="0 0 186 186">
    <g fill="none" fill-rule="evenodd">
        <path fill="#09BB07" d="M186 94.148C186 41.636 144.364 0 91.852 0 41.636 0 0 41.636 0 94.148 0 144.364 41.636 186 91.852 186 144.364 186 186 144.364 186 94.148z"/>
        <path fill="#FFF" d="M46.845 99.131a1.22 1.22 0 0 1-.099-1.531l4.188-5.698a.979.979 0 0 1 1.39-.204l24.912 19.094c.438.336 1.142.316 1.556-.029l60.642-50.519a1.124 1.124 0 0 1 1.478.07l3.951 3.902a.983.983 0 0 1 .002 1.408L78.74 130.7a.993.993 0 0 1-1.409-.018L46.845 99.131z"/>
    </g>
</svg>
