<svg xmlns="http://www.w3.org/2000/svg" width="40" height="41" viewBox="0 0 40 41">
    <path fill="#353535" fill-rule="nonzero" d="M30.219 33.481L9.306 33.46c-2.404-.227-4.29-2.257-4.29-4.547V14.508c0-2.786 2.126-4.912 4.74-4.912h20.463c2.613 0 4.738 2.126 4.738 4.809v14.404c0 2.545-2.126 4.672-4.738 4.672zM9.938 11.707c-1.521 0-2.759 1.237-2.759 2.927v14.147c0 1.352 1.238 2.59 2.759 2.59h20.098c1.52 0 2.757-1.238 2.757-2.691V14.532c0-1.588-1.237-2.826-2.757-2.826H9.938v.001zm15.285 2.595c-.71 0-1.115-.576-1.115-1.287V8.61c0-.711.405-1.288 1.115-1.288s1.116.577 1.116 1.288v4.403c0 .712-.404 1.288-1.116 1.288zm-10.636 0c-.71 0-1.115-.576-1.115-1.287V8.61c0-.711.405-1.288 1.115-1.288s1.116.577 1.116 1.288v4.403c0 .712-.404 1.288-1.116 1.288zm6.085 13.893h-1.228c-.711 0-1.288-.473-1.288-1.184 0-.71.577-1.184 1.288-1.184h1.228c.711 0 1.288.474 1.288 1.184s-.577 1.184-1.288 1.184zm13.024-9.566H7.032c-.711 0-1.288-.405-1.288-1.115s.577-1.115 1.288-1.115h26.665c.71 0 1.288.404 1.288 1.115 0 .71-.577 1.115-1.289 1.115zm-19.664 5.52h-1.228c-.711 0-1.288-.473-1.288-1.183 0-.711.577-1.116 1.288-1.116h1.228c.711 0 1.288.405 1.288 1.116 0 .71-.577 1.184-1.288 1.184zm6.64 0h-1.228c-.711 0-1.288-.473-1.288-1.183 0-.711.577-1.116 1.288-1.116h1.228c.711 0 1.288.405 1.288 1.116 0 .71-.577 1.184-1.288 1.184zm6.714 0h-1.229c-.71 0-1.287-.473-1.287-1.183 0-.711.576-1.116 1.287-1.116h1.229c.71 0 1.287.405 1.287 1.116 0 .71-.576 1.184-1.287 1.184zm-13.354 4.046h-1.228c-.711 0-1.288-.473-1.288-1.184 0-.71.577-1.184 1.288-1.184h1.228c.711 0 1.288.474 1.288 1.184s-.577 1.184-1.288 1.184zm13.354 0h-1.229c-.71 0-1.287-.473-1.287-1.184 0-.71.576-1.184 1.287-1.184h1.229c.71 0 1.287.474 1.287 1.184s-.576 1.184-1.287 1.184z"/>
</svg>
