<svg xmlns="http://www.w3.org/2000/svg" width="60" height="61" viewBox="0 0 60 61">
    <g fill="#262A2F" fill-rule="nonzero">
        <path d="M30.112 13.505c2.308 0 4.544.45 6.648 1.34 2.033.86 3.86 2.093 5.43 3.663a17.03 17.03 0 0 1 5.003 12.078 17.03 17.03 0 0 1-5.003 12.078 17.03 17.03 0 0 1-5.43 3.662 16.97 16.97 0 0 1-6.648 1.34c-2.307 0-4.544-.45-6.647-1.34a17.028 17.028 0 0 1-5.43-3.663 17.03 17.03 0 0 1-5.002-12.077c0-2.308.45-4.545 1.34-6.648a17.03 17.03 0 0 1 3.662-5.43 17.03 17.03 0 0 1 5.43-3.663c2.104-.89 4.34-1.34 6.647-1.34zm-.112-3c-11.028 0-19.967 8.948-19.967 19.987 0 11.038 8.94 19.987 19.967 19.987 11.028 0 19.967-8.949 19.967-19.987 0-11.039-8.94-19.987-19.967-19.987z"/>
        <path d="M29.919 42.929c-.829 0-1.5-.875-1.5-1.953V26.035c0-1.079.671-1.953 1.5-1.953.828 0 1.5.874 1.5 1.953v14.94c0 1.08-.672 1.954-1.5 1.954zm4.893-24.36c1.35-1.475 3.563.55 2.213 2.026l-6.212 6.787a1.5 1.5 0 0 1-2.167.048l-6.788-6.787c-1.414-1.415.707-3.536 2.121-2.122l5.68 5.68 5.153-5.632zM28.6 25.357l2.167-.048-1.109-1.109-1.058 1.157zm-.288.315l.288-.315a1.5 1.5 0 0 1 2.167-.048l.315.315c1.173 1.173-.088 2.834-1.36 2.556-1.24.268-2.513-1.304-1.41-2.508zm8.345 4.41H23.37c-1.078 0-1.951-.672-1.951-1.5 0-.829.873-1.5 1.95-1.5h13.288c1.078 0 1.952.671 1.952 1.5 0 .828-.874 1.5-1.952 1.5zm0 6.093H23.37c-1.078 0-1.951-.671-1.951-1.5 0-.828.873-1.5 1.95-1.5h13.288c1.078 0 1.952.672 1.952 1.5 0 .829-.874 1.5-1.952 1.5z"/>
    </g>
</svg>
