<svg xmlns="http://www.w3.org/2000/svg" width="17" height="20" viewBox="0 0 17 20">
    <g fill="#353535" fill-rule="nonzero">
        <path d="M8.992 9.993L.22 18.753a.724.724 0 0 0 1.022 1.023l9.284-9.27a.726.726 0 0 0 .002-1.022L1.308.234a.722.722 0 0 0-1.023 0 .724.724 0 0 0-.003 1.023l8.71 8.736z"/>
        <path d="M15.286 9.993l-8.77 8.76a.724.724 0 0 0 1.023 1.023l9.284-9.27a.726.726 0 0 0 .002-1.022L7.605.234a.722.722 0 0 0-1.024 0 .724.724 0 0 0-.002 1.023l8.707 8.736z"/>
    </g>
</svg>
