<svg xmlns="http://www.w3.org/2000/svg" width="388" height="331" viewBox="0 0 388 331">
    <g fill="none" fill-rule="evenodd" transform="translate(-1 -5)">
        <path stroke="#C3CED9" stroke-width="4" d="M143 82a8 8 0 1 0 0 16h81a8 8 0 1 0 0-16h-81z"/>
        <circle cx="173.5" cy="80.5" r="9.5" fill="#F5F8FB" stroke="#C3CED9" stroke-width="4"/>
        <rect width="160" height="197" x="124" y="106" fill="#EEF3F8" rx="20"/>
        <path stroke="#C3CED9" stroke-linecap="round" stroke-width="4" d="M102 131.54V118c0-11.046 8.845-20 19.756-20h122.488c10.91 0 19.756 8.954 19.756 20v108.576m0 9.004v19.632m0 9.826V274c0 11.046-8.845 20-19.756 20H121.756c-10.91 0-19.756-8.954-19.756-20V169.332m0-8.466V140.71M138.318 145H235M138.758 197H235M138.762 244H199"/>
        <circle cx="231" cy="243" r="18" stroke="#C3CED9" stroke-width="4"/>
        <circle cx="296" cy="34" r="7" stroke="#C3CED9" stroke-width="3"/>
        <circle cx="67" cy="128" r="7" fill="#D8D8D8" opacity=".357"/>
        <circle cx="382" cy="133" r="5" stroke="#C3CED9" stroke-width="3"/>
        <circle cx="72" cy="288" r="5" stroke="#C3CED9" stroke-width="3"/>
        <circle cx="293" cy="274" r="5" stroke="#C3CED9" stroke-width="3"/>
        <path stroke="#C3CED9" stroke-width="4" d="M327.428 199.085l-.1 1.945-1.946-.047c-.561-.014-1.127-.026-1.699-.036h-.147a8.536 8.536 0 0 0-8.536 8.535 8.518 8.518 0 0 0 8.518 8.518h28.922a6.56 6.56 0 0 0 2.722-12.53c-2.258-1.03-5.185-1.896-8.77-2.586l-1.859-.358.255-1.875c.05-.373.076-.751.076-1.133 0-4.696-3.897-8.518-8.724-8.518-4.66 0-8.482 3.575-8.712 8.085zM29.385 88.63l.1 1.944 1.946-.047c.478-.012.961-.022 1.449-.03l.12-.001a7 7 0 0 1 7 7 6.984 6.984 0 0 1-6.984 6.983H8.31a5.312 5.312 0 0 1-2.204-10.145c1.906-.87 4.384-1.603 7.426-2.188l1.858-.358-.254-1.875a6.896 6.896 0 0 1-.063-.929c0-3.848 3.197-6.984 7.16-6.984 3.827 0 6.962 2.933 7.15 6.63z"/>
        <path fill="#F0F0F0" d="M156.3 330l1.65-1.65a2.333 2.333 0 0 0-3.3-3.3L153 326.7l-1.65-1.65a2.333 2.333 0 0 0-3.3 3.3l1.65 1.65-1.65 1.65a2.333 2.333 0 0 0 3.3 3.3l1.65-1.65 1.65 1.65a2.333 2.333 0 0 0 3.3-3.3L156.3 330zM53.2 194.6l1.65-1.65a2.333 2.333 0 0 0-3.3-3.3l-1.65 1.65-1.65-1.65a2.333 2.333 0 1 0-3.3 3.3l1.65 1.65-1.65 1.65a2.333 2.333 0 0 0 3.3 3.3l1.65-1.65 1.65 1.65a2.333 2.333 0 0 0 3.3-3.3l-1.65-1.65zM25.458 243.314l1.885-1.886a2.667 2.667 0 0 0-3.771-3.771l-1.886 1.885-1.885-1.885a2.667 2.667 0 0 0-3.771 3.771l1.885 1.886-1.886 1.885a2.667 2.667 0 1 0 3.771 3.771l1.886-1.885 1.886 1.886a2.667 2.667 0 1 0 3.771-3.772l-1.885-1.885zM306.2 109.9l1.65-1.65a2.333 2.333 0 0 0-3.3-3.3l-1.65 1.65-1.65-1.65a2.333 2.333 0 0 0-3.3 3.3l1.65 1.65-1.65 1.65a2.333 2.333 0 0 0 3.3 3.3l1.65-1.65 1.65 1.65a2.333 2.333 0 0 0 3.3-3.3l-1.65-1.65zM125.913 13.435l2.24-2.24a3.167 3.167 0 0 0-4.479-4.477l-2.239 2.239-2.24-2.24a3.167 3.167 0 1 0-4.477 4.479l2.239 2.239-2.24 2.24a3.167 3.167 0 0 0 4.479 4.478l2.239-2.24 2.24 2.24a3.167 3.167 0 1 0 4.478-4.479l-2.24-2.239zM200.913 47.435l2.24-2.24a3.167 3.167 0 0 0-4.479-4.477l-2.239 2.239-2.24-2.24a3.167 3.167 0 1 0-4.477 4.479l2.239 2.239-2.24 2.24a3.167 3.167 0 0 0 4.479 4.478l2.239-2.24 2.24 2.24a3.167 3.167 0 1 0 4.478-4.479l-2.24-2.239zM364.913 251.435l2.24-2.24a3.167 3.167 0 1 0-4.479-4.477l-2.239 2.239-2.24-2.24a3.167 3.167 0 1 0-4.477 4.479l2.239 2.239-2.24 2.24a3.167 3.167 0 1 0 4.479 4.478l2.239-2.24 2.24 2.24a3.167 3.167 0 1 0 4.478-4.479l-2.24-2.239z"/>
        <path fill="#C3CED9" fill-rule="nonzero" stroke="#C3CED9" stroke-width="2" d="M227.86 250.18c-.292 0-.585-.111-.808-.333l-6.717-6.684a1.134 1.134 0 0 1 0-1.61 1.148 1.148 0 0 1 1.617 0l5.909 5.879 12.158-12.099a1.147 1.147 0 0 1 1.617 0 1.134 1.134 0 0 1 0 1.61l-12.967 12.903a1.143 1.143 0 0 1-.808.334z"/>
        <g stroke="#C3CED9" stroke-linecap="round" stroke-width="4">
            <path d="M40.435 305h274.13M330.438 305h20.427M84.438 318h70.13M170.442 318h22.116M216.429 318h59.149M48.433 331h44.134M141.433 331h166.215"/>
        </g>
    </g>
</svg>
