<svg xmlns="http://www.w3.org/2000/svg" width="40" height="40" viewBox="0 0 40 40">
    <path fill="#353535" fill-rule="nonzero" d="M29.115 5a2.904 2.904 0 0 1 2.889 2.615v24.616c0 1.538-1.217 2.769-2.737 2.769h-18.53C9.216 35 8 33.77 8 32.23V7.77C8 6.23 9.216 5 10.736 5h18.38zm-5.92 2.395v4.173l1.216-1.077a.458.458 0 0 1 .608 0l1.14 1.077V7.395h-2.964zm-9.679 25.317v.75V7.395h-1.959c-.827 0-1.354.683-1.354 1.367v22.582c0 .836.677 1.368 1.354 1.368h1.96zm16.278-1.368V8.767c0-.836-.506-1.372-1.158-1.372h-.886v6.39c0 .38-.434.533-.65.305l-2.372-2.051-2.552 2.05c-.217.229-.651.077-.651-.303V7.395h-6.072v25.317h13.183c.796 0 1.158-.684 1.158-1.368z"/>
</svg>
