<svg xmlns="http://www.w3.org/2000/svg" width="32" height="32" viewBox="0 0 32 32">
    <path fill="#FF6693" fill-rule="nonzero" d="M17.325 19.902a9.968 9.968 0 0 0 5.298-2.68c3.832-3.738 3.88-9.774.104-13.456-3.776-3.683-9.968-3.638-13.8.1-3.833 3.739-3.881 9.774-.105 13.457 1.622 1.584 3.265 2.51 5.402 2.718-.014.982-.02 1.998-.028 2.997H6.01v2.837h8.183c.003 2.903.031 5.158.031 5.158h3.028s.004-2.482.018-5.158h8.249v-2.837h-8.236c.01-1.323.025-2.475.042-3.136zm-6.582-4.452c-2.735-2.666-2.7-7.038.073-9.742 2.775-2.705 7.258-2.74 9.993-.073 2.736 2.666 2.701 7.038-.073 9.742-2.777 2.708-7.26 2.74-9.993.073z"/>
</svg>
