<svg xmlns="http://www.w3.org/2000/svg" width="46" height="46" viewBox="0 0 46 46">
    <g fill="none" fill-rule="evenodd">
        <path fill="#FF5959" d="M43 23.247C43 11.954 34.046 3 22.753 3 11.954 3 3 11.954 3 23.247 3 34.046 11.954 43 22.753 43 34.046 43 43 34.046 43 23.247z"/>
        <path fill="#FFF" fill-rule="nonzero" d="M33.985 19.083c0-.866-.598-1.221-1.465-1.221h-1.465c.691-.682 1.389-1.928 1.389-3.03 0-1.357-.782-2.831-2.974-2.831-2.885 0-5.342 3.408-6.474 5.128-1.133-1.72-3.57-5.128-6.454-5.128-2.193 0-2.973 1.474-2.973 2.832 0 1.102.663 2.347 1.368 3.029h-1.465c-.867 0-1.465.355-1.465 1.22v4.64h1.465v8.792c0 .866.821 1.465 1.688 1.465h15.692c.866 0 1.668-.6 1.668-1.465v-8.791l1.465.053v-4.693zm-4.515-5.515c.97 0 1.403.407 1.403 1.265 0 1.743-1.65 3.029-3.481 3.029h-2.93c1.115-1.654 3.055-4.294 5.008-4.294zm-12.928 0c1.952 0 3.873 2.64 4.989 4.294h-2.198c-1.831 0-4.195-1.312-4.195-3.053 0-.858.434-1.241 1.404-1.241zm7.187 8.69v-2.93h8.791v2.93H23.73zm-10.257-2.93h8.791v2.93h-8.791v-2.93zm1.465 4.395h7.326v8.791h-7.326v-8.791zm8.792 8.791v-8.791h7.326v8.791h-7.326z"/>
    </g>
</svg>
