<svg xmlns="http://www.w3.org/2000/svg" xmlns:xlink="http://www.w3.org/1999/xlink" width="620" height="150" viewBox="0 0 620 150">
    <defs>
        <rect id="a" width="620" height="150" rx="10"/>
    </defs>
    <g fill="none" fill-rule="evenodd">
        <mask id="b" fill="#fff">
            <use xlink:href="#a"/>
        </mask>
        <use fill="#FFF" xlink:href="#a"/>
        <g mask="url(#b)" opacity=".505">
            <path stroke="#FFD225" d="M-49 110.105c61.809-17.217 129.631-18.362 192.396-3.702 63.756 14.927 119.17 49.381 185.392 57.602 51.14 6.359 107.327 3.811 152.73-19.616C534.295 117.2 597.152 57.37 666 75.293"/>
            <path stroke="#FFCD25" d="M-48 99.366c62.085-15.786 129.764-15.377 192.045.698 63.213 16.325 117.623 52.059 183.471 61.798 50.854 7.513 106.955 6.256 152.826-16.106C533.589 119.812 597.723 61.448 666 80.896"/>
            <path stroke="#FFC925" d="M-47 87.52c62.442-14.332 130.063-12.365 191.895 5.113 62.764 17.747 116.25 54.659 181.8 65.914 50.644 8.669 106.733 8.709 153.083-12.563C533.726 121.276 599.333 64.519 667 85.532"/>
            <path stroke="#FFC425" d="M-47 75.633c62.8-12.854 130.367-9.339 191.762 9.528 62.317 19.157 114.86 57.21 180.135 69.914 50.413 9.818 106.501 11.146 153.438-8.989C532.81 122.705 599.802 67.573 667 90.126"/>
            <path stroke="#FFC025" d="M-46 64.986c63.154-11.44 130.66-6.338 191.603 14.06 61.841 20.59 113.47 60.06 178.454 74.343 50.189 11.048 106.273 13.669 153.733-5.464C532.873 125.75 601.335 71.956 668 96.121"/>
            <path stroke="#FFBC25" d="M-45 52.49c63.516-9.9 130.981-3.27 191.48 18.326 61.407 21.935 112.082 62.206 176.784 77.87 49.971 12.093 106.047 16.002 154.05-1.875C533.02 126.062 602.903 74.335 669 99.84"/>
            <path stroke="#FFB725" d="M-44 41.23c63.865-8.408 131.324-.25 191.33 22.721 60.962 23.31 110.704 64.698 175.099 81.822C372.17 159 428.249 164.2 476.792 147.456c56.331-19.434 127.65-69.46 193.208-42.475"/>
            <path stroke="#FFB325" d="M-43 30.199c64.227-6.973 131.577 2.781 191.242 27.223 60.506 24.822 109.307 67.542 173.42 86.231 49.538 14.437 105.585 20.95 154.64 5.263 56.946-18.21 129.676-66.812 194.698-38.199"/>
            <path stroke="#FFAE25" d="M-42 18.36c64.49-5.498 131.695 5.79 190.776 31.692 59.967 26.253 107.782 70.174 171.466 90.377 49.288 15.606 105.297 23.428 154.78 8.845 57.54-16.948 131.58-63.934 195.978-33.765"/>
            <path stroke="#FFAA25" d="M-42 6.717C22.85 2.715 90.001 15.57 148.635 42.805c59.52 27.633 106.39 72.656 169.848 94.317 49.01 16.738 104.997 25.842 155.056 12.396C531.644 133.91 607.13 88.608 671 120.263"/>
            <path stroke="#FFA525" d="M-41-4.715C24.201-7.248 91.29 7.174 149.481 35.66c59.066 28.924 104.996 74.973 168.16 98.062 48.786 17.834 104.755 28.196 155.406 15.959C531.755 135.417 608.675 91.9 672 124.964"/>
        </g>
    </g>
</svg>
