<svg xmlns="http://www.w3.org/2000/svg" width="60" height="60" viewBox="0 0 60 60">
    <g fill="#8A9FB2" fill-rule="nonzero">
        <path d="M49.318 19.838a20.823 20.823 0 0 0-4.49-6.664 20.805 20.805 0 0 0-6.664-4.484 20.769 20.769 0 0 0-8.156-1.65c-2.829 0-5.574.554-8.156 1.65a20.823 20.823 0 0 0-6.663 4.49 20.823 20.823 0 0 0-4.49 6.664A20.769 20.769 0 0 0 9.048 28c0 2.829.554 5.574 1.65 8.156a20.823 20.823 0 0 0 4.49 6.664 20.805 20.805 0 0 0 6.663 4.484 20.769 20.769 0 0 0 8.156 1.65c2.83 0 5.574-.555 8.156-1.65a20.823 20.823 0 0 0 6.664-4.49 20.823 20.823 0 0 0 4.49-6.664 20.769 20.769 0 0 0 1.65-8.156c0-2.823-.56-5.568-1.65-8.156zm-6.802 20.67a17.575 17.575 0 0 1-12.508 5.183A17.575 17.575 0 0 1 17.5 40.508 17.575 17.575 0 0 1 12.317 28c0-4.725 1.842-9.167 5.183-12.508a17.575 17.575 0 0 1 12.508-5.183c4.725 0 9.168 1.842 12.508 5.183A17.575 17.575 0 0 1 47.7 28c0 4.725-1.842 9.167-5.183 12.508z"/>
        <path d="M30.303 17.298a2.279 2.279 0 0 0-2.275 2.28 2.268 2.268 0 0 0 2.275 2.27 2.273 2.273 0 0 0 2.282-2.27 2.284 2.284 0 0 0-2.282-2.28zM30.177 23.624c-.987 0-1.836.728-1.836 1.631v15.133c0 .897.849 1.63 1.836 1.63.987 0 1.788-.727 1.788-1.63V25.249c0-.897-.801-1.625-1.788-1.625z"/>
    </g>
</svg>
