<svg xmlns="http://www.w3.org/2000/svg" width="150" height="150" viewBox="0 0 150 150">
    <g fill="none" fill-rule="evenodd">
        <path d="M0 0h150v150H0z" opacity=".247"/>
        <path fill="#CE988D" d="M146.342 77.213c0-39.778-32.053-72.024-71.593-72.024-39.543 0-71.596 32.246-71.596 72.024 0 39.777 32.053 72.023 71.596 72.023 39.54 0 71.593-32.246 71.593-72.023"/>
        <path fill="#E3A37D" d="M74.749 149.236h.058-.058m.075 0a72.775 72.775 0 0 0 3.687-.098c3.151-3.016 6.01-6.395 8.478-10.206 1.912-2.955 3.393-5.816 4.469-8.586h31.621a72.29 72.29 0 0 0 9.957-11.305H93.51a20.98 20.98 0 0 0-.837-4.935c15.386-.705 26.99-3.862 26.99-7.65 0-4.305-14.998-7.796-33.5-7.796-2.662 0-5.25.073-7.734.21-5.591-2.78-12.704-4.83-21.307-6.129a119.129 119.129 0 0 0-17.722-1.326c-8.717 0-20.894 1.01-33.614 5.203a71.636 71.636 0 0 0 4.162 11.246c11.113-3.609 21.796-4.478 29.452-4.478 4.84 0 9.704.33 14.482.982-.793.664-1.216 1.365-1.216 2.089 0 3.761 11.449 6.902 26.68 7.635a9.87 9.87 0 0 1 1.532 2.38 8.65 8.65 0 0 1 .682 2.569h-65.1a72.296 72.296 0 0 0 9.957 11.305H78.27c-.386.672-.799 1.355-1.253 2.055-4.205 6.496-9.899 11.532-16.472 15.415a71.516 71.516 0 0 0 14.033 1.42c-39.462-.094-71.424-32.303-71.424-72.023 0-39.498 31.601-71.57 70.76-72.019a42.138 42.138 0 0 0-4.079 2.579c-18.7 13.373-23.155 39.404-10.033 58.288a17.66 17.66 0 0 0 .379.537c8.15 11.358 20.92 17.413 33.883 17.414 8.369 0 16.815-2.523 24.155-7.773l.051-.037.013-.01.039-.027.014-.01.044-.032.005-.004.107-.076c.001-.002.003-.004.006-.005l.048-.036.004-.002c.672-.49 1.326-.997 1.96-1.52l.001-.002.151-.124.007-.006.042-.035.008-.007.044-.036.005-.005.049-.04.007-.006.04-.034.012-.01.036-.03.013-.012.037-.031.012-.01c.013-.012.027-.024.042-.035l.02-.018.024-.02a.578.578 0 0 0 .044-.038l.027-.023.005-.005.07-.06c.003-.001.004-.003.006-.005l.035-.03.007-.005.037-.032c10.147-8.78 15.186-21.637 14.415-34.403 6.745 10.986 10.637 23.934 10.637 37.795 0 39.753-32.012 71.984-71.518 72.023m-.19 0h-.039.038"/>
        <path fill="#D8785C" d="M69.834 7.773c-18.793 13.44-23.199 39.663-9.836 58.57 13.359 18.905 39.427 23.337 58.22 9.896 18.794-13.44 23.2-39.663 9.838-58.57C114.696-1.238 88.63-5.669 69.834 7.773z"/>
        <path fill="#221F17" d="M78.54 20.09C92.774 9.912 108.59 6 119.662 8.849a41.35 41.35 0 0 0-6.678-4.265c-11.054-.266-24.338 4.026-36.44 12.68-12.102 8.655-20.495 19.867-23.878 30.457a41.912 41.912 0 0 0 1.808 7.745c.965-11.454 9.834-25.197 24.068-35.376M59.986 66.327c.339.48.691.943 1.044 1.404l67.99-48.624c-.31-.477-.621-.954-.952-1.423-.34-.479-.692-.942-1.045-1.403l-67.99 48.623c.31.477.622.955.953 1.423M109.514 63.92C95.28 74.1 79.46 78.01 68.394 75.164a41.453 41.453 0 0 0 6.675 4.264c11.056.265 24.339-4.026 36.44-12.68 12.102-8.656 20.497-19.867 23.879-30.457a41.993 41.993 0 0 0-1.808-7.745c-.966 11.454-9.836 25.198-24.066 35.376"/>
        <path fill="#B97761" d="M118.335 76.155l.044-.032-.044.032M118.497 76.039l.048-.037-.048.036m2.171-1.69l.042-.035-.042.035m.05-.042l.044-.036-.044.036m.05-.04a2053.782 2053.782 0 0 1 0 0m.055-.047l.04-.034-.04.034m.052-.045l.036-.03-.036.03m.049-.04l.037-.032a1.16 1.16 0 0 1-.037.031m.049-.04l.042-.036c-.015.011-.029.023-.042.036m.062-.054l.024-.02-.024.02m.048-.041l.02-.017a.311.311 0 0 1-.02.017m.047-.04c.002 0 .004-.004.005-.005l-.005.005m.076-.065l.005-.005-.005.005m.04-.035l.007-.005-.007.005m.044-.037c0-.001-.001 0 0 0"/>
        <path fill="#CD664C" d="M94.078 84.005a41.771 41.771 0 0 1-19.008-4.578c.32.008.646.012.97.012 1.852 0 3.763-.125 5.716-.374 1.843.248 3.702.374 5.567.374 8.361-.001 16.805-2.521 24.14-7.768a41.735 41.735 0 0 0 14.523-18.5c4.412-5.485 7.61-11.27 9.402-16.881a42.09 42.09 0 0 0-1.047-5.224c4.093 15.276-.675 32.047-13.05 42.755h-.001l-.037.032-.007.005-.035.03-.005.005-.07.06-.006.005a.621.621 0 0 1-.027.023l-.02.017a.578.578 0 0 1-.024.02l-.024.02a.197.197 0 0 1-.02.019l-.042.036-.012.009-.037.031-.013.012-.036.03-.012.01-.04.034-.007.006-.049.04-.005.005-.044.036-.008.007-.042.035-.007.006-.15.124c-.002 0-.002 0-.003.002a41.187 41.187 0 0 1-1.96 1.52l-.003.002-.048.036a7.829 7.829 0 0 0-.112.08l-.006.005-.044.032a1.497 1.497 0 0 1-.054.038l-.012.009a2.513 2.513 0 0 1-.05.037c-7.336 5.247-15.778 7.767-24.14 7.766m-23.844-7.48a20.785 20.785 0 0 1-.228-.16L70 76.36l.235.164m-1.422-1.036a36.5 36.5 0 0 1-.415-.321l-.005-.004c-.303-.237-.593-.496-.89-.742.267.144.532.296.802.434l.01.005c.367.188.736.37 1.107.546-.347-.075-.69-.155-1.029-.243.14.11.28.218.42.325m59.79-32.14a42.256 42.256 0 0 0-1.182-17.446l-.013-.043a41.892 41.892 0 0 0-.58-1.873l-.003-.008v.001a41.693 41.693 0 0 0-.975-2.605l3.17-2.267a42.021 42.021 0 0 1 4.56 9.44c-.395 4.683-2.112 9.75-4.978 14.8m5.736-12.29l-.001-.004v.003m-9.966-12.878a42.536 42.536 0 0 0-2.107-3.637 41.95 41.95 0 0 0-.952-1.424c-.34-.48-.691-.943-1.046-1.403a42.127 42.127 0 0 0-2.861-3.342c.77.13 1.523.288 2.254.476a41.777 41.777 0 0 1 7.363 7.434v-.001l-2.651 1.897M114.713 5.52l-.033-.019.03.018.003.001"/>
        <path fill="#201C18" d="M119.66 8.848a27.137 27.137 0 0 0-2.255-.476 41.774 41.774 0 0 0-3.537-3.309c.27.146.544.287.812.438l.033.02.021.013c.562.321 1.117.657 1.666 1.007l.039.026c.544.347 1.08.707 1.61 1.081l.045.033c.53.376 1.051.765 1.565 1.167M125.85 21.374a41.68 41.68 0 0 0-1.48-3.196l2.653-1.897c.353.46.705.924 1.045 1.403.33.469.641.946.951 1.423l-3.17 2.267M76.04 79.439c-.324 0-.65-.004-.97-.012l-.01-.005a41.365 41.365 0 0 1-1.719-.932l-.016-.009c-.565-.323-1.121-.659-1.671-1.01l-.04-.026A40.964 40.964 0 0 1 70 76.36l-.043-.033a41.575 41.575 0 0 1-1.564-1.164c.339.088.682.168 1.029.243a41.75 41.75 0 0 0 12.334 3.66 45.276 45.276 0 0 1-5.715.373m49.945-26.267a42.403 42.403 0 0 0 2.616-9.825c2.866-5.05 4.583-10.117 4.978-14.802v.002-.002l.003.009c.21.62.401 1.246.58 1.873l.012.042c.056.195.11.389.162.584v.003l.004.01a42.09 42.09 0 0 1 1.047 5.224c-1.792 5.611-4.99 11.396-9.402 16.882"/>
        <path fill="#FFFFFE" d="M86.989 138.932c1.912-2.955 3.393-5.816 4.469-8.586h31.621a72.29 72.29 0 0 0 9.957-11.305H93.51a20.739 20.739 0 0 0-1.778-7.475c-4.32-9.675-15.965-16.009-34.61-18.825a119.129 119.129 0 0 0-17.722-1.326c-8.717 0-20.894 1.01-33.614 5.203a71.636 71.636 0 0 0 4.162 11.246c11.113-3.609 21.796-4.478 29.452-4.478 5.339 0 10.707.401 15.956 1.194 13.976 2.11 23.04 6.334 25.522 11.892a8.65 8.65 0 0 1 .682 2.569h-65.1a72.296 72.296 0 0 0 9.957 11.305H78.27c-.386.672-.799 1.355-1.253 2.055-4.205 6.496-9.899 11.532-16.472 15.415a71.516 71.516 0 0 0 17.967 1.322c3.151-3.016 6.01-6.395 8.478-10.206"/>
        <path fill="#DE946F" d="M92.672 114.106a20.697 20.697 0 0 0-.941-2.54c-2.327-5.21-6.778-9.452-13.303-12.696 2.483-.137 5.072-.21 7.735-.21 18.5 0 33.498 3.49 33.498 7.797 0 3.787-11.603 6.944-26.99 7.649m-13.326-.014c-15.231-.733-26.68-3.874-26.68-7.635 0-.724.423-1.425 1.216-2.09.492.068.983.139 1.474.213 11.904 1.797 20.245 5.128 23.99 9.512"/>
        <path fill="#F8E7E3" d="M79.345 114.092c-3.745-4.384-12.086-7.715-23.99-9.512-.491-.074-.982-.145-1.474-.212 3.244-2.722 12.675-4.845 24.547-5.498 6.525 3.244 10.976 7.485 13.303 12.696.371.832.685 1.679.94 2.54a142.956 142.956 0 0 1-13.326-.014z"/>
    </g>
</svg>
