<svg xmlns="http://www.w3.org/2000/svg" width="80" height="80" viewBox="0 0 80 80">
    <path fill="#C3CED9" fill-rule="nonzero" d="M41.934 20.804c-5.735 0-10.403-4.666-10.403-10.401C31.531 4.669 36.199 0 41.934 0s10.4 4.666 10.4 10.403c0 5.735-4.665 10.401-10.4 10.401zm-22.145 8.26c-5.239 0-9.502-4.261-9.502-9.503 0-5.241 4.263-9.503 9.502-9.503a9.513 9.513 0 0 1 9.5 9.503c0 5.239-4.261 9.504-9.5 9.504zm-9.411 21.497A8.386 8.386 0 0 1 2 42.18a8.386 8.386 0 0 1 8.378-8.378 8.386 8.386 0 0 1 8.376 8.378 8.386 8.386 0 0 1-8.376 8.381v.001zm9.411 21.297a7.113 7.113 0 0 1-7.105-7.106 7.114 7.114 0 0 1 7.104-7.105 7.114 7.114 0 0 1 7.104 7.105c0 3.917-3.186 7.106-7.103 7.106zM41.934 80a6.212 6.212 0 0 1-6.207-6.207 6.214 6.214 0 0 1 6.207-6.207 6.212 6.212 0 0 1 6.205 6.207A6.213 6.213 0 0 1 41.932 80h.002zm22.48-10.491a5.015 5.015 0 0 1-5.01-5.01 5.015 5.015 0 0 1 5.01-5.01 5.015 5.015 0 0 1 5.01 5.01 5.015 5.015 0 0 1-5.01 5.01zm9.207-23.18a4.116 4.116 0 0 1-4.11-4.11 4.116 4.116 0 0 1 4.11-4.111 4.117 4.117 0 0 1 4.111 4.11 4.119 4.119 0 0 1-4.111 4.112zM61.225 19.87a3.19 3.19 0 1 0 6.38-.001 3.19 3.19 0 0 0-6.38.002v-.001z"/>
</svg>
