<svg xmlns="http://www.w3.org/2000/svg" width="80" height="80" viewBox="0 0 80 80">
    <g fill="none" fill-rule="evenodd">
        <circle cx="40" cy="40" r="40" fill="#FFD225"/>
        <path fill="#FFF" fill-rule="nonzero" d="M57.594 56.006H22.31c-3.035 0-5.311-2.276-5.311-5.311V28.31C17 25.276 19.276 23 22.311 23h35.283c3.035 0 5.311 2.276 5.311 5.311v22.384c0 3.035-2.276 5.311-5.311 5.311zm0-29.97H22.31c-1.138 0-2.276 1.137-2.276 2.275v22.384c0 1.138 1.138 2.276 2.276 2.276h35.283c1.138 0 2.276-1.138 2.276-2.276V28.31c0-1.138-1.138-2.276-2.276-2.276zM30.278 41.59c.76-.76 1.518-.76 2.277 0 .758.758.758 1.517 0 2.276-1.518 1.518-4.553 4.173-6.07 5.69-.38.38-.76.76-1.139.76s-.758-.38-1.138-.76c0 0-.38-.379-.38-.758 0-.38 0-.759.38-1.138l6.07-6.07zm20.866 0c-.758-.76-1.517-.76-2.276 0-.759.758-.759 1.517 0 2.276 1.897 1.518 4.553 4.173 6.07 5.69.38.38.759.38 1.138.38.38 0 .76 0 1.138-.38.38-.379.38-.758.38-1.137 0-.38 0-.76-.38-1.139-1.517-1.138-4.552-4.173-6.07-5.69zm-10.622-.76c-1.897 0-3.794-.378-5.312-1.517L25.172 31.95a1.684 1.684 0 0 1-.376-2.337v-.004a1.605 1.605 0 0 1 2.231-.376l10.46 7.425c1.897 1.517 4.932 1.517 7.208-.38l8.691-7.018a1.529 1.529 0 0 1 2.14.212 1.46 1.46 0 0 1-.178 2.053l-8.756 7.409c-1.897 1.138-3.794 1.897-6.07 1.897z"/>
    </g>
</svg>
