<svg xmlns="http://www.w3.org/2000/svg" width="60" height="60" viewBox="0 0 60 60">
    <path fill="#8A9FB2" fill-rule="nonzero" d="M47.641 46.042H12.36c-3.035 0-5.312-2.277-5.312-5.312V18.347c0-3.035 2.277-5.311 5.312-5.311H47.64c3.035 0 5.312 2.276 5.312 5.31V40.73c0 3.035-2.277 5.312-5.312 5.312zm0-29.971H12.36c-1.138 0-2.277 1.138-2.277 2.276V40.73c0 1.139 1.139 2.277 2.277 2.277H47.64c1.138 0 2.277-1.138 2.277-2.277V18.347c0-1.138-1.139-2.276-2.277-2.276zM20.326 31.625c.759-.759 1.517-.759 2.276 0 .759.759.759 1.518 0 2.277-1.517 1.517-4.553 4.173-6.07 5.69-.38.38-.759.759-1.138.759-.38 0-.759-.38-1.138-.759 0 0-.38-.38-.38-.758 0-.38 0-.76.38-1.139l6.07-6.07zm20.866 0c-.759-.759-1.518-.759-2.277 0-.758.759-.758 1.518 0 2.277 1.897 1.517 4.553 4.173 6.07 5.69.38.38.76.38 1.139.38.38 0 .758 0 1.138-.38.38-.38.38-.758.38-1.138 0-.38 0-.759-.38-1.138-1.518-1.138-4.553-4.173-6.07-5.69zm-10.623-.759c-1.897 0-3.794-.379-5.311-1.517l-10.039-7.364a1.684 1.684 0 0 1-.375-2.337v-.004a1.605 1.605 0 0 1 2.23-.375l10.46 7.424c1.897 1.518 4.932 1.518 7.208-.38l8.692-7.018a1.529 1.529 0 0 1 2.14.213 1.46 1.46 0 0 1-.179 2.052l-8.756 7.41c-1.897 1.138-3.794 1.896-6.07 1.896z"/>
</svg>
