<svg xmlns="http://www.w3.org/2000/svg" width="60" height="60" viewBox="0 0 60 60">
    <g fill="none" fill-rule="nonzero">
        <path fill="#FC6621" d="M30.482 9.024c-7.622 0-13.816 6.176-13.816 13.816 0 7.622 13.816 21.078 13.816 21.078S44.297 30.462 44.297 22.84c0-7.64-6.187-13.816-13.815-13.816z"/>
        <path fill="#FFF" d="M24.697 22.828a5.785 5.785 0 1 0 11.57 0 5.785 5.785 0 0 0-11.57 0z"/>
        <path fill="#333" d="M42.357 31.72a48.268 48.268 0 0 1-2.05 3.008l2.88-.306v11.192L17.795 48.3V37.101l4.339-.457a63.456 63.456 0 0 1-1.94-2.588l-5.176.55V51.38l30.945-3.271V31.335l-3.606.384z"/>
    </g>
</svg>
