<svg xmlns="http://www.w3.org/2000/svg" width="46" height="46" viewBox="0 0 46 46">
    <g fill="none" fill-rule="evenodd">
        <path fill="#FFF" d="M23 3C11.972 3 3 11.972 3 23s8.972 20 20 20 20-8.972 20-20S34.028 3 23 3z"/>
        <path fill="#09BB07" fill-rule="nonzero" d="M23 3C11.972 3 3 11.972 3 23s8.972 20 20 20 20-8.972 20-20S34.028 3 23 3zm11.1 9.962L26.304 20.6h6.923v2.344h-8.852v2.47h5.727v2.343h-5.727v7.017h-2.343v-7.017h-5.727v-2.343h5.727v-2.47H13.18V20.6h6.923l-7.796-7.638a1.176 1.176 0 0 1 .071-1.655 1.176 1.176 0 0 1 1.656.071l9.17 8.984 9.17-8.984a1.176 1.176 0 0 1 1.656-.071c.474.436.506 1.18.07 1.655z"/>
    </g>
</svg>
