<svg xmlns="http://www.w3.org/2000/svg" width="60" height="60" viewBox="0 0 60 60">
    <g fill="#353535" fill-rule="nonzero">
        <path d="M38.815 37.115c-.088 0-.183.004-.285.007-.125.005-.267.01-.427.01H21.659c-.06 0-.126-.004-.197-.008-.08-.004-.162-.009-.247-.009-.71 0-1.116.427-1.116 1.17 0 .408.119.718.353.923.255.221.557.247.762.247.085 0 .168-.005.248-.01.07-.004.137-.007.197-.007h16.682c.113 0 .213.004.31.01.085.003.164.007.24.007.142 0 .519 0 .78-.316.204-.249.231-.571.231-.854 0-.502-.112-1.17-1.087-1.17zM38.818 29.888a7.66 7.66 0 0 0-.286.007c-.126.005-.268.01-.43.01H21.66a3.45 3.45 0 0 1-.198-.008 4.149 4.149 0 0 0-.248-.01c-.708 0-1.114.427-1.114 1.17 0 .152 0 .614.336.913.242.215.531.243.756.243.054 0 .11-.002.17-.004.086-.002.187-.005.263 0H38.34c.113 0 .214.006.311.01.084.004.164.008.24.008.142 0 .519 0 .779-.316.205-.249.232-.571.232-.854 0-.502-.112-1.17-1.084-1.17z"/>
        <path d="M37.393 11.026H18.561c-1.066 0-2.276.08-3.163.681-.926.627-1.376 1.703-1.376 3.289v29.158c0 3.284 1.357 4.686 4.539 4.686h23.117c1.62 0 2.691-.362 3.37-1.14.643-.736.93-1.83.93-3.546V19.697l-8.585-8.671zM16.286 44.4V15.243c0-1.183.726-1.853 2.045-1.887h17.353v4.11c0 1.613.525 2.696 1.605 3.312 1.013.578 2.399.658 3.745.658h2.68V44.4c0 1.476-.628 2.134-2.036 2.134H18.324c-1.41 0-2.038-.658-2.038-2.134zm23.247-25.047c-1.181 0-1.8-1.074-1.8-2.135v-2.577l4.881 4.712h-3.081z"/>
        <path d="M20.435 24.68c.242.214.53.242.756.242.054 0 .11-.002.17-.004.086-.002.187-.005.263 0l.018.001H38.34c.112 0 .213.005.31.01.085.004.164.007.24.007.142 0 .519 0 .779-.316.204-.249.232-.57.232-.853 0-.503-.113-1.17-1.086-1.17-.088 0-.184.003-.285.007-.126.004-.268.01-.429.01H21.659c-.06 0-.127-.004-.197-.008-.08-.005-.162-.01-.248-.01-.71 0-1.116.427-1.116 1.17 0 .152 0 .614.337.913z"/>
    </g>
</svg>
