<svg xmlns="http://www.w3.org/2000/svg" width="46" height="46" viewBox="0 0 46 46">
    <g fill="none" fill-rule="evenodd">
        <path fill="#FFD225" d="M43 23.247C43 11.954 34.046 3 22.753 3 11.954 3 3 11.954 3 23.247 3 34.046 11.954 43 22.753 43 34.046 43 43 34.046 43 23.247z"/>
        <path fill="#FFF" d="M11.316 23.946c-.382-.393-.42-1.08-.1-1.514l.158-.213a.98.98 0 0 1 1.39-.194l5.014 3.823c.44.336 1.136.328 1.567-.03l13.969-11.574c.424-.352 1.094-.318 1.487.068l-.094-.092a.98.98 0 0 1 .005 1.403L19.288 30.72a.993.993 0 0 1-1.405-.013l-6.567-6.761z"/>
    </g>
</svg>
