<?xml version="1.0" encoding="UTF-8"?>
<svg width="46px" height="46px" viewBox="0 0 46 46" version="1.1" xmlns="http://www.w3.org/2000/svg" xmlns:xlink="http://www.w3.org/1999/xlink">
    <!-- Generator: Sketch 49.1 (51147) - http://www.bohemiancoding.com/sketch -->
    <title>退</title>
    <desc>Created with Sketch.</desc>
    <defs></defs>
    <g id="修改页面" stroke="none" stroke-width="1" fill="none" fill-rule="evenodd">
        <g id="交易记录" transform="translate(-674.000000, -844.000000)">
            <g id="小图标/多选/已勾选-copy-4" transform="translate(674.000000, 844.000000)">
                <path d="M43,23.2469136 C43,11.9540741 34.0459259,3 22.7530864,3 C11.9540741,3 3,11.9540741 3,23.2469136 C3,34.0459259 11.9540741,43 22.7530864,43 C34.0459259,43 43,34.0459259 43,23.2469136 Z" id="Fill-" fill="#FC6621"></path>
                <g id="退回" transform="translate(8.000000, 9.000000)" fill="#FFFFFF" fill-rule="nonzero">
                    <path d="M15.5625,0 C14.0625,0 12.5625,0.1875 11.25,0.75 L11.8125,2.4375 C12.9375,1.875 14.25,1.6875 15.5625,1.6875 C22.5,1.6875 28.3125,7.3125 28.3125,14.4375 C28.3125,21.5625 22.6875,27.1875 15.5625,27.1875 C8.4375,27.1875 2.8125,21.5625 2.8125,14.4375 C2.8125,14.0625 2.8125,13.5 2.8125,13.125 C3.1875,13.125 3.5625,13.125 3.75,13.125 C5.8125,13.125 7.5,11.4375 7.5,9.375 C7.5,7.3125 5.8125,5.625 3.75,5.625 C1.6875,5.625 0,7.3125 0,9.375 C0,10.5 0.5625,11.625 1.3125,12.375 C1.3125,12.9375 1.3125,13.6875 1.3125,14.4375 C1.3125,22.3125 7.6875,28.875 15.75,28.875 C23.8125,28.875 30,22.3125 30,14.4375 C30,6.375 23.625,0 15.5625,0 Z M1.6875,9.375 C1.6875,8.25 2.625,7.3125 3.75,7.3125 C4.875,7.3125 5.8125,8.25 5.8125,9.375 C5.8125,10.5 4.875,11.4375 3.75,11.4375 C3.5625,11.4375 3.375,11.4375 3.1875,11.4375 C3.1875,11.4375 3.1875,11.4375 3.1875,11.4375 L2.8125,11.25 C2.25,10.875 1.6875,10.125 1.6875,9.375 Z M12.1875,10.125 C11.25,8.8125 10.5,7.875 10.125,7.3125 L9.1875,7.875 C9.75,8.625 10.3125,9.5625 11.25,10.875 L12.1875,10.125 Z M13.6875,17.4375 C13.6875,17.8125 13.5,18.1875 13.3125,18.375 L14.25,19.5 C14.4375,19.3125 14.8125,19.125 15,18.9375 C15.9375,18.75 16.875,18.1875 17.8125,17.8125 C17.8125,17.4375 17.8125,17.0625 17.8125,16.6875 C16.6875,17.25 15.75,17.625 14.8125,18 L14.8125,14.0625 L20.0625,14.0625 L20.0625,14.4375 L21.1875,14.4375 L21.1875,7.6875 L13.6875,7.6875 L13.6875,17.4375 Z M14.8125,8.625 L20.0625,8.625 L20.0625,10.3125 L14.8125,10.3125 L14.8125,8.625 Z M14.8125,11.4375 L20.0625,11.4375 L20.0625,13.125 L14.8125,13.125 L14.8125,11.4375 Z M8.25,20.25 L8.8125,21.5625 C9.5625,20.625 10.125,19.875 10.6875,19.5 C11.4375,20.625 12.5625,21.1875 14.25,21.1875 C17.0625,21.1875 19.875,21.1875 22.6875,21.1875 C22.875,20.8125 23.0625,20.25 23.0625,20.0625 C20.0625,20.0625 17.25,20.25 14.4375,20.0625 C12.9375,20.0625 12,19.5 11.4375,18.5625 L11.4375,12.375 L8.4375,12.375 L8.4375,13.5 L10.125,13.5 L10.125,18.5625 C9.75,18.75 9,19.3125 8.25,20.25 Z M21.75,14.4375 C20.8125,15 19.6875,15.375 18.75,15.9375 C18,15.5625 17.25,15 16.5,14.625 L15.9375,15.375 C18.1875,16.6875 20.0625,18 21.75,19.3125 L22.5,18.1875 C21.75,17.8125 20.8125,17.25 19.875,16.5 C20.8125,16.125 21.75,15.75 22.6875,15.375 L21.75,14.4375 Z" id="Shape"></path>
                </g>
            </g>
        </g>
    </g>
</svg>