<svg xmlns="http://www.w3.org/2000/svg" width="186" height="186" viewBox="0 0 186 186">
    <g fill="none" fill-rule="evenodd">
        <path fill="#F76260" d="M186 94.148C186 41.636 144.364 0 91.852 0 41.636 0 0 41.636 0 94.148 0 144.364 41.636 186 91.852 186 144.364 186 186 144.364 186 94.148z"/>
        <path fill="#FFF" d="M88.006 50h9.988c1.109 0 1.973.893 1.932 1.995l-2.223 60.183c-.02.538-.484.993-1.035.993h-7.336a1.043 1.043 0 0 1-1.035-.993l-2.223-60.183A1.914 1.914 0 0 1 88.006 50zM93 136a7 7 0 1 1 0-14 7 7 0 0 1 0 14z"/>
    </g>
</svg>
