<svg xmlns="http://www.w3.org/2000/svg" width="60" height="60" viewBox="0 0 60 60">
    <path fill="#8A9FB2" fill-rule="nonzero" d="M44.321 34.571c-2.516 0-4.728 1.227-6.129 3.096l-11.11-5.227c.22-.788.347-1.617.347-2.476a9.18 9.18 0 0 0-.347-2.476l11.11-5.226c1.4 1.868 3.613 3.095 6.13 3.095A7.678 7.678 0 0 0 52 17.679 7.678 7.678 0 0 0 44.321 10a7.678 7.678 0 0 0-7.678 7.679c0 .625.096 1.223.235 1.805l-11.1 5.224a9.198 9.198 0 0 0-7.564-3.958A9.213 9.213 0 0 0 9 29.964a9.213 9.213 0 0 0 16.777 5.257l11.101 5.223a7.715 7.715 0 0 0-.235 1.806 7.678 7.678 0 0 0 7.678 7.679A7.678 7.678 0 0 0 52 42.25a7.678 7.678 0 0 0-7.679-7.679zm0-21.5a4.612 4.612 0 0 1 4.608 4.608 4.612 4.612 0 0 1-4.608 4.607 4.612 4.612 0 0 1-4.607-4.607 4.612 4.612 0 0 1 4.607-4.608zM18.214 36.107a6.15 6.15 0 0 1-6.143-6.143 6.15 6.15 0 0 1 6.143-6.143 6.151 6.151 0 0 1 6.143 6.143 6.15 6.15 0 0 1-6.143 6.143zm26.107 10.75a4.612 4.612 0 0 1-4.607-4.607 4.612 4.612 0 0 1 4.607-4.607 4.612 4.612 0 0 1 4.608 4.607 4.612 4.612 0 0 1-4.608 4.607z"/>
</svg>
