<svg xmlns="http://www.w3.org/2000/svg" width="60" height="60" viewBox="0 0 60 60">
    <path fill="#353535" fill-rule="nonzero" d="M39.679 34.429c-2.4 0-4.51 1.17-5.845 2.951l-10.593-4.984c.21-.751.33-1.541.33-2.36 0-.82-.12-1.609-.33-2.361l10.593-4.984c1.336 1.782 3.445 2.952 5.845 2.952A7.32 7.32 0 0 0 47 18.32 7.32 7.32 0 0 0 39.679 11a7.321 7.321 0 0 0-7.322 7.321c0 .597.091 1.167.224 1.722l-10.584 4.98a8.77 8.77 0 0 0-7.211-3.773A8.785 8.785 0 0 0 6 30.036a8.784 8.784 0 0 0 15.997 5.012l10.585 4.98a7.356 7.356 0 0 0-.225 1.722 7.321 7.321 0 0 0 7.322 7.321A7.32 7.32 0 0 0 47 41.75a7.32 7.32 0 0 0-7.321-7.321zm0-20.5a4.398 4.398 0 0 1 4.392 4.392 4.398 4.398 0 0 1-4.392 4.393 4.398 4.398 0 0 1-4.393-4.393 4.397 4.397 0 0 1 4.393-4.392zM14.786 35.893a5.865 5.865 0 0 1-5.857-5.858 5.865 5.865 0 0 1 5.857-5.857 5.865 5.865 0 0 1 5.857 5.858 5.865 5.865 0 0 1-5.857 5.857zm24.893 10.25a4.398 4.398 0 0 1-4.393-4.393 4.398 4.398 0 0 1 4.393-4.393 4.397 4.397 0 0 1 4.392 4.393 4.397 4.397 0 0 1-4.392 4.393z"/>
</svg>
