<svg xmlns="http://www.w3.org/2000/svg" width="60" height="61" viewBox="0 0 60 61">
    <g fill="#353535" fill-rule="nonzero">
        <path d="M43.063 47.59H16.937c-2.725 0-4.937-2.024-4.937-4.507V18.098c0-2.483 2.212-4.508 4.937-4.508h26.126c2.72 0 4.937 2.02 4.937 4.508v24.985c0 2.483-2.212 4.507-4.937 4.507zM17.588 16.564c-1.407 0-2.55 1.03-2.55 2.296v23.443c0 1.266 1.143 2.295 2.55 2.295H42.45c1.406 0 2.55-1.03 2.55-2.295V18.86c0-1.267-1.144-2.296-2.55-2.296H17.588z"/>
        <path d="M31.346 37.006h-.023a1.157 1.157 0 0 1-1.058-.77l-3.487-9.607-3.366 9.589a1.158 1.158 0 0 1-1.082.788h-5.794c-.633 0-1.151-.537-1.151-1.194 0-.657.518-1.194 1.15-1.194h4.99l4.154-11.828a1.16 1.16 0 0 1 1.076-.788h.006c.477 0 .909.31 1.076.77l3.561 9.804 2.446-6.066a1.156 1.156 0 0 1 1.064-.735h.006c.466 0 .886.293 1.059.74l3.187 8.103h4.304c.633 0 1.151.537 1.151 1.194 0 .657-.518 1.194-1.15 1.194h-5.076c-.466 0-.886-.293-1.064-.74l-2.434-6.174-2.486 6.18a1.155 1.155 0 0 1-1.059.734z"/>
    </g>
</svg>
