<svg xmlns="http://www.w3.org/2000/svg" width="80" height="80" viewBox="0 0 80 80">
    <g fill="none" fill-rule="evenodd">
        <circle cx="40" cy="40" r="40" fill="#FFD225"/>
        <path fill="#FFF" fill-rule="nonzero" d="M59.548 56.13c-.152-.28-3.691-6.909-6.012-9.688-1.028-1.229-2.16-2.433-3.666-2.433-1.29 0-2.422.876-3.723 1.892-1.352 1.05-2.134 1.161-2.422 1.309-.069-.076-6.556-7.688-8.265-11.101-1.077-2.156-.303-2.941 3.132-4.73 3.136-1.632 3.093-3.935 2.527-5.1-.227-.342-5.623-8.477-8.28-11.133A3.861 3.861 0 0 0 30.062 14c-3.017 0-6.127 3.172-6.452 3.51-2.151 2.152-5.23 10.165-2.591 18.923 2.642 8.77 8.185 16.854 16.947 24.715 3.028 2.717 6.311 4.098 9.76 4.098 5.45 0 9.617-3.496 10.763-4.563 2-1.871 1.524-3.871 1.06-4.553zM30.929 17.056c2.44 2.437 7.775 10.464 7.811 10.464.058.227-.158.818-1.395 1.46-.833.44-1.788.954-2.653 1.589l-8.304-11.952c1.089-.93 2.584-1.914 3.673-1.914.357 0 .623.108.868.353zm8.842 42.084c-8.38-7.522-13.668-15.21-16.165-23.49-2.13-7.067-.015-13.49 1.517-15.692l8.225 11.833c-1.085 1.312-1.539 3.063-.306 5.529 1.856 3.708 8.354 11.328 8.708 11.728.169.173.81.717 2.004.717a4.38 4.38 0 0 0 1.03-.14l7.887 11.739c-1.41.663-3.082 1.178-4.945 1.178-2.765 0-5.44-1.142-7.955-3.402zm16.875-.433a15.903 15.903 0 0 1-2.379 1.795l-7.792-11.584c.436-.245.88-.526 1.337-.883.674-.526 1.698-1.323 2.058-1.323.112 0 .49.145 1.586 1.46 2.137 2.566 5.67 9.166 5.77 9.346.011 0 .195.465-.58 1.19z"/>
    </g>
</svg>
