<svg xmlns="http://www.w3.org/2000/svg" width="60" height="60" viewBox="0 0 60 60">
    <path fill="#8A9FB2" fill-rule="nonzero" d="M49.551 46.177c-.151-.281-3.69-6.91-6.012-9.689-1.027-1.229-2.159-2.432-3.665-2.432-1.29 0-2.422.875-3.724 1.892-1.351 1.049-2.134 1.16-2.422 1.308-.068-.076-6.556-7.688-8.264-11.101-1.078-2.156-.303-2.941 3.132-4.729 3.136-1.633 3.092-3.936 2.526-5.1-.227-.342-5.622-8.477-8.279-11.134a3.861 3.861 0 0 0-2.778-1.146c-3.017 0-6.128 3.172-6.452 3.51-2.152 2.152-5.23 10.165-2.592 18.923 2.642 8.77 8.186 16.854 16.948 24.715 3.027 2.717 6.31 4.098 9.76 4.098 5.45 0 9.616-3.496 10.762-4.563 2-1.87 1.525-3.871 1.06-4.552zM20.933 7.103c2.44 2.436 7.775 10.463 7.81 10.463.058.227-.158.818-1.394 1.46-.833.44-1.788.955-2.653 1.59L16.39 8.662c1.09-.93 2.585-1.914 3.674-1.914.356 0 .623.109.868.354zm8.841 42.083c-8.38-7.522-13.667-15.21-16.165-23.489-2.13-7.068-.014-13.49 1.518-15.693l8.224 11.833c-1.084 1.312-1.538 3.064-.306 5.529 1.856 3.709 8.355 11.328 8.708 11.728.17.173.811.718 2.004.718a4.38 4.38 0 0 0 1.03-.141l7.887 11.74c-1.41.662-3.082 1.178-4.945 1.178-2.764 0-5.439-1.143-7.955-3.403zm16.875-.432a15.903 15.903 0 0 1-2.378 1.794l-7.793-11.583c.436-.246.88-.527 1.337-.884.675-.526 1.698-1.322 2.059-1.322.111 0 .49.144 1.585 1.46 2.138 2.566 5.67 9.165 5.77 9.345.012 0 .195.465-.58 1.19z"/>
</svg>
