<svg xmlns="http://www.w3.org/2000/svg" width="150" height="150" viewBox="0 0 150 150">
    <g fill="none" fill-rule="evenodd">
        <path d="M0 0h150v150H0z" opacity=".247"/>
        <path fill="#85BD67" d="M149.787 75.171c0-39.912-32.188-72.268-71.894-72.268-39.707 0-71.895 32.356-71.895 72.268 0 39.913 32.188 72.269 71.895 72.269 39.706 0 71.894-32.356 71.894-72.269"/>
        <path fill="#525B66" d="M55.454 32.135c1.116-5.505-2.418-10.877-7.894-12-5.478-1.122-10.822 2.431-11.939 7.937-1.116 5.505 2.419 10.877 7.895 12 5.477 1.122 10.822-2.431 11.938-7.937"/>
        <path fill="#6A784B" d="M43.482 40.065l-.01-.002c.004 0 .006 0 .01.002m-.034-.008l-.012-.002.012.002m-.07-.015c-.003 0-.008 0-.011-.002l.011.002m-.035-.007c-.004 0-.007-.002-.01-.003l.01.003m-.037-.008l-.007-.002a.02.02 0 0 1 .007.002m-.147-.035l-.003-.001h.003m-.035-.008h-.003.003m-.035-.008l-.004-.001h.004m-.036-.008h-.002.002m12.408-7.865l.003-.016c0 .006-.002.01-.003.016m.007-.034l.003-.018c0 .007-.002.012-.003.018m.006-.033l.004-.02-.004.02m.006-.033a.199.199 0 0 0 .005-.023l-.005.023M55.493 31.936l.004-.026-.004.026m.005-.028l.027-.159-.027.159m.028-.16c0-.01.002-.02.004-.031l-.004.031m.004-.032l.005-.031-.005.031M55.632 30.849l.002-.032-.002.032m.016-.258v-.026.026m.002-.032v-.026.026m.001-.034l.001-.024v.024m0-.033l.001-.024v.024m0-.032l.003-.081c0 .027-.002.054-.003.08m.004-.089v-.019.02m0-.036v-.017.017m0-.034l.001-.016v.016m0-.034v-.015.015m.001-.036v-.012.012m0-.036v-.01.01m.001-.04v-.004.004m0-.074v-.001m0-.034v-.005.005m0-.035v-.005.005m0-.035v-.005.005m-1.366-4.973l-.002-.004.002.004m-.017-.029l-.003-.005.003.005m-.016-.029l-.004-.006.004.006m-.017-.027l-.004-.008.004.008m-.017-.03l-.004-.006.004.006m-.02-.033v-.002.002m-.018-.029l-.007-.012a.208.208 0 0 0 .007.012m-.016-.028l-.01-.015.01.015m-.017-.026a.156.156 0 0 1-.01-.017l.01.017m-.033-.053l-.011-.02.011.02m-.015-.025l-.014-.023.014.023m-.014-.023"/>
        <path fill="#363A3E" d="M45.548 40.279c-.67 0-1.35-.068-2.032-.207l-.034-.007-.01-.002-.024-.006-.012-.002-.023-.005a.234.234 0 0 1-.012-.003l-.023-.005c-.004 0-.008 0-.011-.002l-.024-.005c-.004 0-.007-.002-.01-.003l-.027-.005a.02.02 0 0 0-.007-.002l-.033-.008a3.677 3.677 0 0 1-.107-.025l-.003-.001-.032-.008h-.003a.412.412 0 0 1-.032-.008l-.004-.001-.032-.008h-.002a10.11 10.11 0 0 1-6.452-5.094 10.06 10.06 0 0 0 5.843 3.566c.683.14 1.362.207 2.033.207 4.71 0 8.927-3.323 9.905-8.143a10.177 10.177 0 0 0-.977-6.8c.249.31.48.633.691.97l.014.022.004.005.011.02.006.008a.203.203 0 0 0 .011.018l.007.01c.002.006.006.011.01.017a.082.082 0 0 1 .007.011l.01.015.008.016.007.012.017.027.001.002.016.027.004.006.013.022.004.008.013.021.004.006a.54.54 0 0 0 .013.024l.003.005.015.025.002.004a10.187 10.187 0 0 1 1.365 4.934V30.011l.001.03v.19c0 .007 0 .014-.002.02v.084l-.001.016v.02l-.001.008c0 .027-.002.054-.003.08v.042c-.002.008-.002.016-.002.024v.008l-.001.026-.001.006-.001.026v.007a9.062 9.062 0 0 1-.014.22l-.002.031c-.02.278-.053.556-.097.835l-.005.032-.004.032-.001.001-.027.159v.002l-.005.026-.002.008a.18.18 0 0 1-.005.024l-.001.01a.199.199 0 0 1-.005.023.07.07 0 0 1-.002.013l-.004.02-.003.015c0 .007-.002.013-.003.018l-.004.018c0 .006-.002.012-.003.016a.456.456 0 0 1-.007.034c-.977 4.82-5.196 8.144-9.906 8.144"/>
        <path fill="#398D2A" d="M46.343 61.325c-6.686 0-12.106-2.053-12.106-4.584 0-2.531 5.42-4.584 12.106-4.584S58.45 54.21 58.45 56.74c0 2.531-5.42 4.584-12.106 4.584"/>
        <path fill="#6A784B" d="M83.091 96.327c-.003 0-.006 0-.009-.002l.009.002M82.988 96.305l-.012-.002c.004 0 .007 0 .012.002m-.036-.008l-.01-.002.01.002m-.037-.008l-.007-.001a.02.02 0 0 1 .007.001m-.147-.035h-.002.002m-.034-.008l-.004-.001h.004m-.036-.008h-.004.004m-.036-.009h-.002.002m12.408-7.864c.002-.005.003-.011.003-.016l-.003.016m.007-.034c0-.006.003-.012.004-.018l-.004.018m.006-.033l.005-.02-.005.02m.007-.034a.2.2 0 0 0 .004-.022c0 .007-.003.014-.004.022m.012-.064a.318.318 0 0 0 .004-.026l-.004.026m.005-.029c.01-.053.02-.105.027-.158-.008.053-.018.105-.027.158m.028-.16c0-.01.003-.02.004-.03l-.004.03m.004-.032l.006-.03-.006.03M95.241 87.112l.003-.032-.003.032m.016-.258l.001-.026v.026m0-.032l.002-.026-.001.026m.002-.034v-.025.025m0-.034l.001-.024v.024m0-.032l.003-.08-.003.08m.004-.09v-.018.019m0-.035v-.017.017m0-.034c.002-.006.002-.011.002-.017l-.001.017m0-.034v-.016.016m.002-.036v-.013.013m0-.036v-.01.01m0-.04v-.004.004m0-.11v-.004.004m0-.035v-.004.004m0-.035v-.004.004m0-.037V86.2m-1.366-4.935c0-.002 0-.002-.002-.003l.002.003m-.017-.028l-.003-.006.003.006m-.016-.03l-.004-.005.004.006m-.017-.028c0-.003-.003-.005-.003-.007l.003.007m-.017-.03l-.003-.006.003.007m-.02-.034v-.001.001m-.017-.028l-.007-.013c.001.004.004.008.007.013m-.016-.028l-.01-.015.01.015m-.017-.027l-.01-.016.01.016m-.033-.053l-.012-.02.012.02m-.015-.025l-.015-.022.015.022m-.015-.022"/>
        <path fill="#388C29" d="M120.545 99.677c-6.646 0-12.033-2.035-12.033-4.544 0-1.248 1.329-2.377 3.48-3.199a10.021 10.021 0 0 0 5.956 3.722 10.07 10.07 0 0 0 2.019.205 10.07 10.07 0 0 0 8.196-4.248c2.696.833 4.417 2.1 4.417 3.52 0 2.51-5.388 4.544-12.035 4.544"/>
        <path fill="#F3D574" d="M129.697 87.846c1.13-5.575-2.449-11.017-7.996-12.153-5.546-1.135-10.958 2.462-12.09 8.038-1.13 5.575 2.45 11.017 7.996 12.153 5.547 1.135 10.96-2.462 12.09-8.038"/>
        <path fill="#909C54" d="M146.843 85.414v-.005.005m.007-.036v-.003.003m.007-.037"/>
        <path fill="#D0AD5B" d="M117.088 95.88c-3.026-.65-5.189-2.504-6.534-5.163 1.401 1.82 3.128 2.983 5.48 3.486a9.52 9.52 0 0 0 1.995.213c4.626 0 9.296-2.784 10.256-7.734.479-2.472.441-5.173-.604-7.239 1.466 2.303 2.52 3.866 2.137 8.018-.383 4.151-4.303 8.882-10.736 8.632a9.504 9.504 0 0 1-1.994-.212z"/>
        <path fill="#63874A" d="M122.535 135.295l-.025-.012.025.012M119.285 132.917l-.012-.015.012.015m-.023-.026l-.01-.012.01.012m-.023-.026l-.009-.01.009.01m-.025-.028"/>
        <path fill="#6D9458" d="M136.146 131.033l.006-.014c-.003.004-.005.01-.006.014m.027-.063l.008-.017-.008.017m.014-.03l.009-.02-.01.02m.014-.031l.01-.022-.01.022m.013-.03l.01-.024-.01.023m.086-.205l.012-.03-.012.03M136.592 129.849l.007-.027-.008.027m.019-.061c.014-.049.029-.096.042-.145-.013.049-.028.096-.042.145m.045-.154l.006-.02-.006.02m.01-.033l.005-.019-.006.02m.01-.034l.005-.017-.006.017m.01-.033l.004-.016-.004.016m.01-.035l.003-.013-.004.013m.01-.038l.003-.008-.003.008m.02-.076l.001-.003v.003m.007-.033l.002-.005c0 .001 0 .003-.002.005m.01-.035v-.004.004m.007-.034l.002-.004-.002.004"/>
        <g>
            <path fill="#B56759" d="M98.595 81.81c-8.593-7.9-29.964-9.44-53.009-2.925S5.1 97.91 1.864 109.153L0 109.68l1.715 6.128c3.51 12.551 28.846 16.368 56.587 8.527 27.74-7.842 47.381-24.373 43.87-36.924l-1.714-6.128-1.863.527"/>
            <path fill="#C95A3F" d="M30.761 129.108c-15.324 0-26.77-4.466-29.046-12.601L0 110.379l.049-.014c.062.344.14.687.234 1.024 2.276 8.136 13.721 12.602 29.046 12.602 8.32 0 17.78-1.316 27.54-4.075 27.741-7.842 47.382-24.373 43.871-36.923a10.884 10.884 0 0 0-.331-.997l.049-.014 1.714 6.128c.274.98.407 1.986.406 3.008-.013 12.073-18.704 26.686-44.276 33.916-9.762 2.759-19.222 4.074-27.54 4.074"/>
            <path fill="#DA765C" d="M100.863 82.934c3.511 12.55-16.13 29.08-43.871 36.923C29.25 127.7 3.917 123.881.406 111.33c-3.511-12.55 16.13-29.08 43.87-36.923 27.741-7.841 53.076-4.024 56.587 8.527"/>
            <path fill="#C95A40" d="M41.753 108.014c-6.42 0-11.213-1.87-12.166-5.278-1.47-5.255 6.756-12.178 18.374-15.463 4.088-1.156 8.05-1.707 11.535-1.707 6.418 0 11.211 1.87 12.164 5.278 1.47 5.256-6.755 12.179-18.374 15.464-4.086 1.155-8.05 1.706-11.533 1.706"/>
        </g>
        <path fill="#398D2A" d="M73.967 136.188c-5.415 0-9.119-1.08-9.623-3.172-.903-3.748 8.806-9.326 21.684-12.46 5.689-1.385 11.046-2.061 15.33-2.061 5.416 0 9.12 1.08 9.623 3.17.903 3.749-8.805 9.328-21.684 12.463-5.688 1.384-11.045 2.06-15.33 2.06"/>
        <g>
            <path fill="#398D2A" d="M137.307 55.77H97.544c-.9-1.12-1.705-2.318-2.404-3.584h44.571a25.188 25.188 0 0 1-2.404 3.585"/>
            <path fill="#525B66" d="M88.9 41.434h56.16v-2.688H88.9z"/>
            <path fill="#DA765C" d="M141.494 49.668c0 2.38-1.973 4.31-4.407 4.31h-2.774c-2.434 0-4.407-1.93-4.407-4.31v-18.26c0-2.382 1.973-4.311 4.407-4.311h2.774c2.434 0 4.407 1.93 4.407 4.31v18.261M104.055 49.668c0 2.38-1.973 4.31-4.407 4.31h-2.775c-2.434 0-4.407-1.93-4.407-4.31v-18.26c0-2.382 1.973-4.311 4.407-4.311h2.775c2.434 0 4.407 1.93 4.407 4.31v18.261"/>
            <path fill="#6B737B" d="M90.683 45.018h.892V35.16h-.892zM142.386 45.018h.891V35.16h-.891z"/>
            <path fill="#FFFFFE" d="M108.512 41.434h6.24v-2.688h-6.24zM120.1 41.434h6.24v-2.688h-6.24z"/>
        </g>
    </g>
</svg>
