<svg xmlns="http://www.w3.org/2000/svg" width="150" height="150" viewBox="0 0 150 150">
    <g fill="none" fill-rule="evenodd">
        <path d="M0 0h150v150H0z"/>
        <path fill="#88D3A2" d="M150 72.097C150 32.28 117.721 0 77.903 0 38.084 0 5.806 32.279 5.806 72.097c0 39.819 32.278 72.097 72.097 72.097 39.818 0 72.097-32.278 72.097-72.097"/>
        <path fill="#FFFFFE" d="M149.814 66.948H80.098l28.539-60.172A71.464 71.464 0 0 0 90.312.968l-31.295 65.98H5.992a72.551 72.551 0 0 0 1.581 21.116h140.66a72.551 72.551 0 0 0 1.58-21.116"/>
        <path fill="#73B68C" d="M35.553 95.806c-8.552-.275-15.23-2.6-15.23-5.428 0-.827.57-1.61 1.593-2.313h20.603l-4.07 4.523-2.417-1.548-1.42 2.156 2.086 1.337-1.145 1.273m7.46-.296l-1.57-1.005 5.795-6.44h5.363c1.022.702 1.593 1.486 1.593 2.313 0 2.362-4.66 4.374-11.18 5.132"/>
        <path fill="#D9DBD9" d="M53.226 88.065h-5.412l1.536-1.563c1.61.44 2.933.97 3.876 1.563m-10.175 0H22.258c2.728-1.715 8.636-2.904 15.484-2.904 2.747 0 5.342.192 7.642.53l-2.333 2.374"/>
        <path fill="#7F9F7B" d="M37.742 46.456a.007.007 0 0 0 .002-.004l-.002.004"/>
        <path fill="#E8ECED" d="M3.871 41.766l11.898 1.983 16.384 2.703.115-.732-15.847-2.57 1.79-3.589 15.85 5.196.222-.704-15.737-5.16 2.416-4.839 14.613 7.54.33-.66-14.614-7.54 2.419-4.839 13.385 9.87.428-.6-13.48-9.937 1.791-3.586 11.394 11.483.514-.525-11.786-11.88-8.959-7.896z"/>
        <path fill="#D56E66" d="M37.966 34.839l-6.03 10.947c3.28 1.533 7.29.327 8.954-2.696 1.665-3.023.356-6.717-2.924-8.251z"/>
        <path fill="#C95C55" d="M34.945 47.42a6.792 6.792 0 0 1-3.01-.703l.012-.02 1.078-2.068-.493.946 1.961-3.761c2.078-.29 3.983-1.522 5.005-3.48a6.34 6.34 0 0 0 .562-1.56c1.65 1.921 2.07 4.688.846 7.065 0 .002 0 .004-.002.005l-.013.025c-1.174 2.254-3.516 3.551-5.946 3.55m-2.633-1.424l.22-.42-.22.42"/>
        <path fill="#E8ECED" d="M13.009 14.637c-2.331.545-3.757 2.797-3.186 5.028.075.293.182.57.314.83l-.202.038c-2.33.545-3.756 2.797-3.186 5.028.104.406.269.782.48 1.126-.338 0-.68.035-1.022.115-2.33.546-3.756 2.797-3.186 5.028.144.561.4 1.068.74 1.503-.149.02-.3.045-.449.081-2.33.546-3.757 2.798-3.186 5.029.57 2.23 2.922 3.596 5.252 3.05 2.33-.547 3.757-2.798 3.187-5.03a4.077 4.077 0 0 0-.74-1.502c.149-.019.299-.046.45-.081 2.33-.546 3.756-2.798 3.185-5.028a4.048 4.048 0 0 0-.479-1.125 4.58 4.58 0 0 0 1.02-.116c2.33-.547 3.757-2.798 3.187-5.03a4.075 4.075 0 0 0-.314-.83l.201-.037c2.33-.546 3.757-2.797 3.187-5.028-.572-2.23-2.923-3.596-5.253-3.05"/>
        <path fill="#F2F1ED" d="M107.996 104.516l-50.9-32.574 1.36-2.265 50.899 32.575-1.359 2.264M110.901 90L69.677 64.202l1.357-2.267 41.224 25.799L110.901 90M102.121 120.968L43.548 81.627l1.427-2.272 58.573 39.341-1.427 2.272M93.412 132.58L34.839 93.24l1.427-2.272 58.573 39.34-1.427 2.273M81.814 142.258l-54.717-36.443 1.412-2.267 54.717 36.443-1.412 2.267M64.395 148.065l-39.234-25.826L26.572 120l39.234 25.826-1.41 2.239"/>
        <path fill="#F2F1ED" d="M64.808 149.032l-2.873-2.177L109.385 90l2.873 2.177-47.45 56.855M46.395 143.226l-2.847-2.211 59.09-69.402 2.846 2.212-59.09 69.4M30.91 133.548l-2.845-2.21 59.089-69.403L90 64.146l-59.09 69.402M28 109.355l-2.839-2.211 39.742-45.209 2.839 2.212L28 109.355"/>
        <path fill="#ECEEEE" d="M59.24 73.818L28 109.355l-2.839-2.211 11.186-12.725-1.508-1.062 1.433-2.39 1.92 1.353 7.917-9.006-2.56-1.643 1.522-2.316 2.889 1.854 16.943-19.274 2.839 2.212-6.693 7.613 11.449 7.39 14.656-17.215L90 64.146l-54.81 64.375-.374.441-3.905 4.586-2.846-2.21 3.785-4.446-6.689-4.558L26.583 120l7.046 4.801 7.674-9.012L30 108.436l1.747-1.984 11.266 7.328 8.095-9.508-11.43-7.438 1.767-1.995 11.387 7.409 8.427-9.898-10.936-7.11 1.785-2.014L63 90.306l7.726-9.075-11.485-7.413zm49.799 31.666l-4.523-2.9 1.603-1.939 4.204 2.695-1.284 2.144zM103.099 120l-8.26-5.637 1.69-2.105 7.987 5.45L103.1 120zm-8.67 12.58l-9.268-6.578 1.645-2.131 9 6.39-1.378 2.32zm-11.687 9.678l-7.258-4.699 1.746-2.075 6.964 4.509-1.452 2.265zm17.397-41.179L90 94.085l1.699-2.15 10.2 7.036L109.384 90l2.873 2.177-47.45 56.855-2.614-1.98-.038.045-11.833-7.66 1.746-2.018 11.519 7.456 7.973-9.553L60 127.848l1.769-2.042 11.518 7.447 7.952-9.527-11.562-7.474 1.795-2.058 11.512 7.44 7.474-8.955-10.135-7.047 1.689-2.084 10.167 7.07 7.96-9.539zm12.664-10.111l-13.126-8.501 1.79-2.144 12.727 8.241-1.39 2.404zm-26.77.148l-10.55-6.81 1.73-2.048 10.558 6.816 7.732-9.082-11.31-7.29 1.726-2.057 11.327 7.3 5.391-6.332 2.847 2.212-59.09 69.4-2.846-2.21L46.967 137l-11.16-7.241 1.74-2.017 11.145 7.231 8.087-9.498-11.295-7.329 1.741-2.017 11.28 7.318 8.087-9.497-11.43-7.424 1.744-2.01 11.408 7.41 8.09-9.5-11.565-7.513 1.744-2.01 11.543 7.499 7.907-9.286zm-6.423-20.47l-9.933-6.448 1.306-2.263 10.307 6.692-1.68 2.018z"/>
        <path fill="#E5E4E0" d="M27.527 106.452l-.43-.374 1.211-2.53.724.627-1.505 2.277"/>
        <path fill="#6E706F" d="M95.698 126.162c-17.26 18.415-43.083 23.678-57.678 11.756-14.594-11.923-12.434-36.515 4.827-54.93 17.26-18.414 43.082-23.678 57.677-11.755 14.595 11.922 12.435 36.514-4.826 54.929zm8.91-59.286c-.307-.25-.617-.493-.932-.731l31.808-38.969a72.033 72.033 0 0 0-4.227-4.918L98.17 62.791c-17.448-8.411-42.658-1.951-59.91 16.453-19.514 20.821-21.452 49.041-4.325 63.031 17.126 13.99 46.83 8.453 66.346-12.368 19.516-20.821 21.453-49.041 4.327-63.031z"/>
    </g>
</svg>
